<?xml version="1.0" encoding="utf-8"?>
<!-- Generator: Adobe Illustrator 19.2.1, SVG Export Plug-In . SVG Version: 6.00 Build 0)  -->
<svg version="1.1" xmlns="http://www.w3.org/2000/svg" xmlns:xlink="http://www.w3.org/1999/xlink" x="0px" y="0px"
	 viewBox="0 0 1024 768" style="enable-background:new 0 0 1024 768;" xml:space="preserve">
<style type="text/css">
	.st0{fill:#CEE6EA;}
	.st1{fill:#D9E8FF;}
	.st2{fill:#CAE0FF;}
	.st3{fill:#5B4545;}
	.st4{fill:#FFFFFF;}
	.st5{fill:#634B4B;}
	.st6{fill:#705A5A;}
	.st7{fill:#756464;}
	.st8{fill:#B4D873;}
	.st9{fill:#92B244;}
	.st10{fill:#E5E5DA;}
	.st11{fill:#56D6CD;}
	.st12{fill:#3FC9BC;}
	.st13{fill:#89E5DC;}
	.st14{fill:#CECDB6;}
</style>
<g id="Background">
	<g>
		<g>
			<path class="st0" d="M-113.3,79.4c0.2,0,0.5,0,0.7,0.1c0.4,0.2,0.6,0.5,0.9,0.8c0.5,0.5,1.2-0.3,0.7-0.7c-0.3-0.3-0.7-0.7-1.1-1
				c-0.4-0.2-0.8-0.2-1.3-0.2C-113.9,78.4-113.9,79.4-113.3,79.4L-113.3,79.4z"/>
		</g>
	</g>
	<g>
		<path class="st1" d="M643.8,126.5C590.1,138,538.3,161,480.7,166.8c-59.5,7.2-134.3,4.3-193.8-2.9c-51.8-5.8-95.9-25.9-147.7-31.7
			c-47.5-4.7-95-1.7-139.2,11.7v622.6h1023.3V157.8c-77.2-7.1-152.9-37.1-231.8-41.4C743.6,113.5,689.9,114.9,643.8,126.5z"/>
		<path class="st2" d="M0-1.2v145.1c44.3-13.3,91.7-16.4,139.2-11.7c51.8,5.8,95.9,25.9,147.7,31.7c59.5,7.2,134.3,10.1,193.8,2.9
			c57.6-5.8,109.4-28.8,163.1-40.3c46-11.5,99.8-13,147.7-10.1c78.9,4.3,154.5,34.3,231.8,41.4v-159H0z"/>
	</g>
</g>
<g id="Objects">
	<g>
		<path class="st3" d="M257.9,376.2c2.1-5.1,5.8-5.2,8.2-0.2l86.3,177.2c2.4,4.9-0.1,9.1-5.6,9.3l-69.3,2c-5.5,0.2-14.5,0.4-20,0.6
			l-69.3,2c-5.5,0.2-8.3-3.9-6.1-8.9L257.9,376.2z"/>
	</g>
	<g>
		<g>
			<path class="st4" d="M257.7,374.6c2-5.1,5.7-5.3,8.2-0.3l26.9,54.1c2.4,4.9,1.7,5.4-1.8,1.1l-16.8-21.1c-3.4-4.3-6.9-3.4-7.9,2
				l-2.1,12.7c-0.9,5.4-3.5,5.8-5.9,0.8l-1-2.1c-2.3-5-7-5.6-10.5-1.3l-8.8,11c-3.4,4.3-4.6,3.6-2.5-1.5L257.7,374.6z"/>
		</g>
		<path class="st4" d="M234.5,434.8l0,0.4L234.5,434.8L234.5,434.8z"/>
	</g>
	<g>
		<path class="st5" d="M363.1,264.1c2.2-5,5.9-5.1,8.2-0.1l133.1,288.8c2.3,5-0.3,9.1-5.8,9.2l-118.4,1.2c-5.5,0.1-14.5,0.1-20,0.2
			l-118.4,1.2c-5.5,0.1-8.2-4-6-9.1L363.1,264.1z"/>
	</g>
	<g>
		<path class="st6" d="M579.8,462.6c2.8-4.7,7.3-4.7,10,0.1l21.3,37.9c2.7,4.8,7.1,12.6,9.8,17.4l21.3,37.9c2.7,4.8,0.4,8.7-5.1,8.6
			l-43.5-0.5c-5.5-0.1-14.5-0.2-20-0.2l-43.5-0.5c-5.5-0.1-7.7-4-4.9-8.7l22.1-37.4c2.8-4.7,7.4-12.5,10.2-17.2L579.8,462.6z"/>
	</g>
	<g>
		<path class="st7" d="M191.3,439.9c2.2-5.1,6.1-5.2,8.7-0.4l66.1,121.7c2.6,4.8,0.3,9-5.2,9.3l-49,2.3c-5.5,0.3-14.5,0.7-20,0.9
			l-49,2.3c-5.5,0.3-8.2-3.7-6.1-8.7L191.3,439.9z"/>
	</g>
	<g>
		<g>
			<path class="st4" d="M363,263.6c2.2-5,5.9-5.1,8.2-0.1l32.7,71.1c2.3,5,1.5,5.5-1.8,1.1l-22.4-30c-3.3-4.4-6.8-3.6-7.9,1.8
				l-3.9,19.8c-1.1,5.4-3.7,5.7-5.9,0.6l-2.9-6.7c-2.2-5.1-6.9-5.8-10.4-1.6l-14,16.5c-3.6,4.2-4.7,3.5-2.5-1.6L363,263.6z"/>
		</g>
		<path class="st4" d="M331.5,339.3c-0.3,0-0.6-0.1-0.7-0.4c-0.3-0.4-0.5-1.3,1-4.6l30.8-70.9c1.2-2.7,2.8-4.1,4.5-4.1
			c1.7,0,3.4,1.4,4.5,4l32.7,71.1c1.7,3.7,1.4,4.2,1.2,4.5c-0.1,0.2-0.3,0.3-0.6,0.3c-0.3,0-0.9,0-3.3-3.2l-22.4-30
			c-1.3-1.7-2.6-2.6-3.8-2.6c-1.5,0-2.7,1.5-3.2,4.2l-3.9,19.8c-0.8,4-2.3,4.6-3.2,4.6c-1.3,0-2.6-1.4-3.7-3.9l-2.9-6.7
			c-1.1-2.5-2.9-4-4.9-4c-1.6,0-3.2,0.9-4.6,2.6l-14,16.5C332.9,339,332,339.3,331.5,339.3z M331.5,338.3v0.5V338.3L331.5,338.3z
			 M367.1,260.3c-1.3,0-2.6,1.3-3.6,3.5l-30.8,70.9c-1.1,2.4-1.1,3.3-1.1,3.6c0.2-0.1,1-0.5,2.7-2.5l14-16.5
			c1.6-1.9,3.5-2.9,5.4-2.9c2.5,0,4.6,1.7,5.8,4.6l2.9,6.7c0.9,2.1,1.9,3.3,2.8,3.3c0.9,0,1.7-1.5,2.2-3.8l3.9-19.8
			c0.6-3.2,2.2-5,4.2-5c1.5,0,3.1,1.1,4.6,3l22.4,30c1.1,1.5,1.8,2.2,2.1,2.5c-0.1-0.5-0.4-1.4-1.2-3.1l-32.7-71.1
			C369.7,261.5,368.4,260.3,367.1,260.3z"/>
	</g>
	<g>
		<path class="st8" d="M0,568.8c0,0,320.2-26.6,1023.3,0.2V641H0V568.8z"/>
		<g>
			<path class="st9" d="M0,591.8l3.2-8.5l1.1-0.1l-3.3,8.5L0,591.8z"/>
			<path class="st9" d="M5.3,591.4l3.3-8.5l1.1-0.1l-3.3,8.5L5.3,591.4z"/>
			<path class="st9" d="M10.7,591l3.3-8.5l1.1-0.1l-3.4,8.5L10.7,591z"/>
			<path class="st9" d="M16.1,590.7l3.4-8.5l1.1-0.1l-3.4,8.5L16.1,590.7z"/>
			<path class="st9" d="M21.5,590.3l3.4-8.5l1.1-0.1l-3.4,8.5L21.5,590.3z"/>
			<path class="st9" d="M26.9,590l3.4-8.5l1.1-0.1l-3.5,8.5L26.9,590z"/>
			<path class="st9" d="M32.3,589.7l3.5-8.5l1.1-0.1l-3.5,8.5L32.3,589.7z"/>
			<path class="st9" d="M37.7,589.4l3.5-8.5l1.1-0.1l-3.5,8.5L37.7,589.4z"/>
			<path class="st9" d="M43.1,589.1l3.5-8.5l1.1-0.1l-3.6,8.5L43.1,589.1z"/>
			<path class="st9" d="M48.5,588.8l3.5-8.5l1.1-0.1l-3.6,8.5L48.5,588.8z"/>
			<path class="st9" d="M53.9,588.5l3.6-8.5l1.1-0.1l-3.6,8.5L53.9,588.5z"/>
			<path class="st9" d="M59.3,588.2l3.6-8.5l1.1-0.1l-3.6,8.5L59.3,588.2z"/>
			<path class="st9" d="M64.7,587.9l3.6-8.5l1.1-0.1l-3.6,8.5L64.7,587.9z"/>
			<path class="st9" d="M70.1,587.7l3.6-8.5l1.1-0.1l-3.7,8.5L70.1,587.7z"/>
			<path class="st9" d="M75.5,587.4l3.7-8.4l1.1,0l-3.7,8.4L75.5,587.4z"/>
			<path class="st9" d="M80.8,587.2l3.7-8.4l1.1,0l-3.7,8.4L80.8,587.2z"/>
			<path class="st9" d="M86.3,586.9l3.7-8.4l1.1,0l-3.7,8.4L86.3,586.9z"/>
			<path class="st9" d="M91.6,586.7l3.7-8.4l1.1,0l-3.7,8.4L91.6,586.7z"/>
			<path class="st9" d="M97.1,586.5l3.7-8.4l1.1,0l-3.8,8.4L97.1,586.5z"/>
			<path class="st9" d="M102.5,586.3l3.7-8.4l1.1,0l-3.8,8.4L102.5,586.3z"/>
			<path class="st9" d="M107.9,586l3.8-8.4l1.1,0l-3.8,8.4L107.9,586z"/>
			<path class="st9" d="M113.3,585.8l3.8-8.4l1.1,0l-3.8,8.4L113.3,585.8z"/>
			<path class="st9" d="M118.7,585.6l3.8-8.4l1.1,0l-3.8,8.4L118.7,585.6z"/>
			<path class="st9" d="M124.1,585.4l3.8-8.4l1.1,0l-3.8,8.4L124.1,585.4z"/>
			<path class="st9" d="M129.5,585.2l3.8-8.4l1.1,0l-3.8,8.4L129.5,585.2z"/>
			<path class="st9" d="M134.9,585l3.8-8.4l1.1,0l-3.9,8.4L134.9,585z"/>
			<path class="st9" d="M140.3,584.8l3.8-8.4l1.1,0l-3.9,8.4L140.3,584.8z"/>
			<path class="st9" d="M145.7,584.6l3.9-8.4l1.1,0l-3.9,8.4L145.7,584.6z"/>
			<path class="st9" d="M151.1,584.5l3.9-8.4l1.1,0l-3.9,8.4L151.1,584.5z"/>
			<path class="st9" d="M156.6,584.3l3.9-8.4l1.1,0l-3.9,8.4L156.6,584.3z"/>
			<path class="st9" d="M161.9,584.1l3.9-8.4l1.1,0l-3.9,8.4L161.9,584.1z"/>
			<path class="st9" d="M167.3,583.9l3.9-8.4l1.1,0l-3.9,8.4L167.3,583.9z"/>
			<path class="st9" d="M172.8,583.8l3.9-8.4l1.1,0l-4,8.4L172.8,583.8z"/>
			<path class="st9" d="M178.2,583.6l3.9-8.4l1.1,0l-4,8.4L178.2,583.6z"/>
			<path class="st9" d="M183.6,583.5l4-8.4l1.1,0l-4,8.4L183.6,583.5z"/>
			<path class="st9" d="M189,583.3l4-8.4l1.1,0l-4,8.4L189,583.3z"/>
			<path class="st9" d="M194.4,583.2l4-8.4l1.1,0l-4,8.4L194.4,583.2z"/>
			<path class="st9" d="M199.8,583l4-8.4l1.1,0l-4,8.4L199.8,583z"/>
			<path class="st9" d="M205.2,582.9l4-8.4l1.1,0l-4,8.4L205.2,582.9z"/>
			<path class="st9" d="M210.6,582.8l4-8.4l1.1,0l-4,8.4L210.6,582.8z"/>
			<path class="st9" d="M216,582.6l4-8.4l1.1,0l-4,8.4L216,582.6z"/>
			<path class="st9" d="M221.4,582.5l4-8.4l1.1,0l-4.1,8.4L221.4,582.5z"/>
			<path class="st9" d="M226.9,582.4l4-8.4l1.1,0l-4.1,8.4L226.9,582.4z"/>
			<path class="st9" d="M232.3,582.3l4.1-8.3l1.1,0l-4.1,8.3L232.3,582.3z"/>
			<path class="st9" d="M237.7,582.1l4.1-8.3l1.1,0l-4.1,8.3L237.7,582.1z"/>
			<path class="st9" d="M243.1,582l4.1-8.3l1.1,0l-4.1,8.3L243.1,582z"/>
			<path class="st9" d="M248.5,581.9l4.1-8.3l1.1,0l-4.1,8.3L248.5,581.9z"/>
			<path class="st9" d="M253.9,581.8l4.1-8.3l1.1,0l-4.1,8.3L253.9,581.8z"/>
			<path class="st9" d="M259.4,581.7l4.1-8.3l1.1,0l-4.1,8.3L259.4,581.7z"/>
			<path class="st9" d="M264.8,581.6l4.1-8.3l1.1,0l-4.1,8.3L264.8,581.6z"/>
			<path class="st9" d="M270.2,581.5l4.1-8.3l1.1,0l-4.1,8.3L270.2,581.5z"/>
			<path class="st9" d="M275.6,581.4l4.1-8.3l1.1,0l-4.2,8.3L275.6,581.4z"/>
			<path class="st9" d="M281,581.3l4.1-8.3l1.1,0l-4.2,8.3L281,581.3z"/>
			<path class="st9" d="M286.4,581.3l4.1-8.3l1.1,0l-4.2,8.3L286.4,581.3z"/>
			<path class="st9" d="M291.8,581.2l4.2-8.3l1.1,0l-4.2,8.3L291.8,581.2z"/>
			<path class="st9" d="M297.2,581.1l4.2-8.3l1.1,0l-4.2,8.3L297.2,581.1z"/>
			<path class="st9" d="M302.6,581l4.2-8.3l1.1,0l-4.2,8.3L302.6,581z"/>
			<path class="st9" d="M308.1,580.9l4.2-8.3l1.1,0l-4.2,8.3L308.1,580.9z"/>
			<path class="st9" d="M313.5,580.9l4.2-8.3l1.1,0l-4.2,8.3L313.5,580.9z"/>
			<path class="st9" d="M318.9,580.8l4.2-8.3l1.1,0l-4.2,8.3L318.9,580.8z"/>
			<path class="st9" d="M324.3,580.7l4.2-8.3l1.1,0l-4.2,8.3L324.3,580.7z"/>
			<path class="st9" d="M329.7,580.7l4.2-8.3l1.1,0l-4.2,8.3L329.7,580.7z"/>
			<path class="st9" d="M335.1,580.6l4.2-8.3l1.1,0l-4.3,8.3L335.1,580.6z"/>
			<path class="st9" d="M340.5,580.6l4.2-8.3l1.1,0l-4.3,8.3L340.5,580.6z"/>
			<path class="st9" d="M346,580.5l4.2-8.3l1.1,0l-4.3,8.3L346,580.5z"/>
			<path class="st9" d="M351.4,580.5l4.3-8.3l1.1,0l-4.3,8.3L351.4,580.5z"/>
			<path class="st9" d="M356.8,580.4l4.3-8.3l1.1,0l-4.3,8.3L356.8,580.4z"/>
			<path class="st9" d="M362.2,580.4l4.3-8.3l1.1,0l-4.3,8.3L362.2,580.4z"/>
			<path class="st9" d="M367.6,580.3l4.3-8.3l1.1,0l-4.3,8.3L367.6,580.3z"/>
			<path class="st9" d="M373,580.3l4.3-8.3l1.1,0l-4.3,8.3L373,580.3z"/>
			<path class="st9" d="M378.5,580.3l4.3-8.3l1.1,0l-4.3,8.3L378.5,580.3z"/>
			<path class="st9" d="M383.9,580.2l4.3-8.3l1.1,0l-4.3,8.3L383.9,580.2z"/>
			<path class="st9" d="M389.3,580.2l4.3-8.3l1.1,0l-4.3,8.3L389.3,580.2z"/>
			<path class="st9" d="M394.7,580.2l4.3-8.3l1.1,0l-4.3,8.3L394.7,580.2z"/>
			<path class="st9" d="M400.1,580.1l4.3-8.3l1.1,0l-4.3,8.3L400.1,580.1z"/>
			<path class="st9" d="M405.5,580.1l4.3-8.3l1.1,0l-4.4,8.3L405.5,580.1z"/>
			<path class="st9" d="M410.9,580.1l4.3-8.3l1.1,0l-4.4,8.3L410.9,580.1z"/>
			<path class="st9" d="M416.4,580.1l4.3-8.3l1.1,0l-4.4,8.3L416.4,580.1z"/>
			<path class="st9" d="M421.8,580.1l4.4-8.3l1.1,0l-4.4,8.3L421.8,580.1z"/>
			<path class="st9" d="M427.2,580l4.4-8.3l1.1,0l-4.4,8.3L427.2,580z"/>
			<path class="st9" d="M432.6,580l4.4-8.3l1.1,0l-4.4,8.3L432.6,580z"/>
			<path class="st9" d="M438,580l4.4-8.3l1.1,0l-4.4,8.3L438,580z"/>
			<path class="st9" d="M443.4,580l4.4-8.3h1.1l-4.4,8.3H443.4z"/>
			<path class="st9" d="M448.8,580l4.4-8.3h1.1l-4.4,8.3H448.8z"/>
			<path class="st9" d="M454.3,580l4.4-8.3l1.1,0l-4.4,8.3L454.3,580z"/>
			<path class="st9" d="M459.7,580l4.4-8.3l1.1,0l-4.4,8.3L459.7,580z"/>
			<path class="st9" d="M465.1,580l4.4-8.3l1.1,0l-4.4,8.3L465.1,580z"/>
			<path class="st9" d="M470.5,580l4.4-8.2l1.1,0l-4.4,8.2L470.5,580z"/>
			<path class="st9" d="M475.9,580l4.4-8.2l1.1,0l-4.4,8.2L475.9,580z"/>
			<path class="st9" d="M481.4,580.1l4.4-8.2l1.1,0l-4.5,8.2L481.4,580.1z"/>
			<path class="st9" d="M486.8,580.1l4.4-8.2l1.1,0l-4.5,8.2L486.8,580.1z"/>
			<path class="st9" d="M492.2,580.1l4.4-8.2l1.1,0l-4.5,8.2L492.2,580.1z"/>
			<path class="st9" d="M497.6,580.1l4.4-8.2l1.1,0l-4.5,8.2L497.6,580.1z"/>
			<path class="st9" d="M503,580.1l4.5-8.2l1.1,0l-4.5,8.2L503,580.1z"/>
			<path class="st9" d="M508.5,580.2l4.5-8.2l1.1,0l-4.5,8.2L508.5,580.2z"/>
			<path class="st9" d="M513.8,580.2l4.5-8.2l1.1,0l-4.5,8.2L513.8,580.2z"/>
			<path class="st9" d="M519.3,580.2l4.5-8.2l1.1,0l-4.5,8.2L519.3,580.2z"/>
			<path class="st9" d="M524.7,580.2l4.5-8.2l1.1,0l-4.5,8.2L524.7,580.2z"/>
			<path class="st9" d="M530.1,580.3l4.5-8.2l1.1,0l-4.5,8.2L530.1,580.3z"/>
			<path class="st9" d="M535.5,580.3l4.5-8.2l1.1,0l-4.5,8.2L535.5,580.3z"/>
			<path class="st9" d="M540.9,580.3l4.5-8.2l1.1,0l-4.5,8.2L540.9,580.3z"/>
			<path class="st9" d="M546.3,580.4l4.5-8.2l1.1,0l-4.5,8.2L546.3,580.4z"/>
			<path class="st9" d="M551.8,580.4l4.5-8.2l1.1,0l-4.5,8.2L551.8,580.4z"/>
			<path class="st9" d="M557.2,580.5l4.5-8.2l1.1,0l-4.5,8.2L557.2,580.5z"/>
			<path class="st9" d="M562.6,580.5l4.5-8.2l1.1,0l-4.6,8.2L562.6,580.5z"/>
			<path class="st9" d="M568,580.6l4.5-8.2l1.1,0l-4.6,8.2L568,580.6z"/>
			<path class="st9" d="M573.4,580.6l4.5-8.2l1.1,0l-4.6,8.2L573.4,580.6z"/>
			<path class="st9" d="M578.8,580.7l4.5-8.2l1.1,0l-4.6,8.2L578.8,580.7z"/>
			<path class="st9" d="M584.2,580.7l4.5-8.2l1.1,0l-4.6,8.2L584.2,580.7z"/>
			<path class="st9" d="M589.7,580.8l4.6-8.2l1.1,0l-4.6,8.2L589.7,580.8z"/>
			<path class="st9" d="M595.1,580.8l4.6-8.2l1.1,0l-4.6,8.2L595.1,580.8z"/>
			<path class="st9" d="M600.5,580.9l4.6-8.2l1.1,0l-4.6,8.2L600.5,580.9z"/>
			<path class="st9" d="M605.9,581l4.6-8.2l1.1,0L607,581L605.9,581z"/>
			<path class="st9" d="M611.3,581l4.6-8.2l1.1,0l-4.6,8.2L611.3,581z"/>
			<path class="st9" d="M616.7,581.1l4.6-8.2l1.1,0l-4.6,8.2L616.7,581.1z"/>
			<path class="st9" d="M622.1,581.2l4.6-8.2l1.1,0l-4.6,8.2L622.1,581.2z"/>
			<path class="st9" d="M627.6,581.2l4.6-8.2l1.1,0l-4.6,8.2L627.6,581.2z"/>
			<path class="st9" d="M633,581.3l4.6-8.2l1.1,0l-4.6,8.2L633,581.3z"/>
			<path class="st9" d="M638.4,581.4l4.6-8.2l1.1,0l-4.7,8.2L638.4,581.4z"/>
			<path class="st9" d="M643.8,581.5l4.6-8.2l1.1,0l-4.6,8.2L643.8,581.5z"/>
			<path class="st9" d="M649.2,581.5l4.6-8.2l1.1,0l-4.7,8.2L649.2,581.5z"/>
			<path class="st9" d="M654.6,581.6l4.6-8.2l1.1,0l-4.7,8.2L654.6,581.6z"/>
			<path class="st9" d="M660.1,581.7l4.6-8.2l1.1,0l-4.7,8.2L660.1,581.7z"/>
			<path class="st9" d="M665.5,581.8l4.6-8.2l1.1,0l-4.7,8.2L665.5,581.8z"/>
			<path class="st9" d="M670.9,581.9l4.6-8.2l1.1,0l-4.7,8.2L670.9,581.9z"/>
			<path class="st9" d="M676.3,582l4.6-8.2l1.1,0l-4.7,8.2L676.3,582z"/>
			<path class="st9" d="M681.7,582.1l4.7-8.2l1.1,0l-4.7,8.2L681.7,582.1z"/>
			<path class="st9" d="M687.1,582.2l4.7-8.2l1.1,0l-4.7,8.2L687.1,582.2z"/>
			<path class="st9" d="M692.5,582.3l4.7-8.2l1.1,0l-4.7,8.2L692.5,582.3z"/>
			<path class="st9" d="M697.9,582.3l4.7-8.2l1.1,0l-4.7,8.2L697.9,582.3z"/>
			<path class="st9" d="M703.4,582.4l4.7-8.2l1.1,0l-4.7,8.2L703.4,582.4z"/>
			<path class="st9" d="M708.8,582.5l4.7-8.2l1.1,0l-4.7,8.2L708.8,582.5z"/>
			<path class="st9" d="M714.2,582.7l4.7-8.2l1.1,0l-4.7,8.2L714.2,582.7z"/>
			<path class="st9" d="M719.6,582.8l4.7-8.2l1.1,0l-4.7,8.2L719.6,582.8z"/>
			<path class="st9" d="M725,582.9l4.7-8.2l1.1,0l-4.7,8.2L725,582.9z"/>
			<path class="st9" d="M730.5,583l4.7-8.2l1.1,0l-4.7,8.2L730.5,583z"/>
			<path class="st9" d="M735.9,583.1l4.7-8.2l1.1,0l-4.8,8.2L735.9,583.1z"/>
			<path class="st9" d="M741.3,583.2l4.7-8.2l1.1,0l-4.8,8.2L741.3,583.2z"/>
			<path class="st9" d="M746.7,583.3l4.7-8.2l1.1,0l-4.8,8.2L746.7,583.3z"/>
			<path class="st9" d="M752.1,583.4l4.7-8.2l1.1,0l-4.8,8.2L752.1,583.4z"/>
			<path class="st9" d="M757.5,583.5l4.7-8.2l1.1,0l-4.8,8.2L757.5,583.5z"/>
			<path class="st9" d="M762.9,583.7l4.7-8.2l1.1,0l-4.8,8.2L762.9,583.7z"/>
			<path class="st9" d="M768.3,583.8l4.8-8.2l1.1,0l-4.8,8.2L768.3,583.8z"/>
			<path class="st9" d="M773.8,583.9l4.8-8.2l1.1,0l-4.8,8.2L773.8,583.9z"/>
			<path class="st9" d="M779.2,584l4.8-8.2l1.1,0l-4.8,8.2L779.2,584z"/>
			<path class="st9" d="M784.6,584.2l4.8-8.2l1.1,0l-4.8,8.2L784.6,584.2z"/>
			<path class="st9" d="M790,584.3l4.8-8.2l1.1,0l-4.8,8.2L790,584.3z"/>
			<path class="st9" d="M795.4,584.4l4.8-8.2l1.1,0l-4.8,8.2L795.4,584.4z"/>
			<path class="st9" d="M800.8,584.5l4.8-8.1l1.1,0l-4.8,8.1L800.8,584.5z"/>
			<path class="st9" d="M806.2,584.7l4.8-8.1l1.1,0l-4.8,8.1L806.2,584.7z"/>
			<path class="st9" d="M811.7,584.8l4.8-8.1l1.1,0l-4.8,8.1L811.7,584.8z"/>
			<path class="st9" d="M817.1,584.9l4.8-8.1l1.1,0l-4.8,8.1L817.1,584.9z"/>
			<path class="st9" d="M822.5,585.1l4.8-8.1l1.1,0l-4.8,8.1L822.5,585.1z"/>
			<path class="st9" d="M827.9,585.2l4.8-8.1l1.1,0l-4.8,8.1L827.9,585.2z"/>
			<path class="st9" d="M833.3,585.4l4.8-8.1l1.1,0l-4.8,8.1L833.3,585.4z"/>
			<path class="st9" d="M838.7,585.5l4.8-8.1l1.1,0l-4.8,8.1L838.7,585.5z"/>
			<path class="st9" d="M844.1,585.7l4.8-8.1l1.1,0l-4.9,8.1L844.1,585.7z"/>
			<path class="st9" d="M849.5,585.8l4.8-8.1l1.1,0l-4.9,8.1L849.5,585.8z"/>
			<path class="st9" d="M854.9,586l4.8-8.1l1.1,0L856,586L854.9,586z"/>
			<path class="st9" d="M860.3,586.1l4.8-8.1l1.1,0l-4.9,8.1L860.3,586.1z"/>
			<path class="st9" d="M865.8,586.3l4.8-8.1l1.1,0l-4.9,8.1L865.8,586.3z"/>
			<path class="st9" d="M871.2,586.4l4.8-8.1l1.1,0l-4.9,8.1L871.2,586.4z"/>
			<path class="st9" d="M876.6,586.6l4.9-8.1l1.1,0l-4.9,8.1L876.6,586.6z"/>
			<path class="st9" d="M882,586.7l4.9-8.1l1.1,0l-4.9,8.1L882,586.7z"/>
			<path class="st9" d="M887.4,586.9l4.9-8.1l1.1,0l-4.9,8.1L887.4,586.9z"/>
			<path class="st9" d="M892.8,587l4.9-8.1l1.1,0l-4.9,8.1L892.8,587z"/>
			<path class="st9" d="M898.2,587.2l4.9-8.1l1.1,0l-4.9,8.1L898.2,587.2z"/>
			<path class="st9" d="M903.7,587.4l4.9-8.1l1.1,0l-4.9,8.1L903.7,587.4z"/>
			<path class="st9" d="M909.1,587.5l4.9-8.1l1.1,0l-4.9,8.1L909.1,587.5z"/>
			<path class="st9" d="M914.5,587.7l4.9-8.1l1.1,0l-4.9,8.1L914.5,587.7z"/>
			<path class="st9" d="M919.9,587.9l4.9-8.1l1.1,0l-4.9,8.1L919.9,587.9z"/>
			<path class="st9" d="M925.3,588l4.9-8.1l1.1,0l-4.9,8.1L925.3,588z"/>
			<path class="st9" d="M930.7,588.2l4.9-8.1l1.1,0l-4.9,8.1L930.7,588.2z"/>
			<path class="st9" d="M936.1,588.4l4.9-8.1l1.1,0l-4.9,8.1L936.1,588.4z"/>
			<path class="st9" d="M941.5,588.6l4.9-8.1l1.1,0l-4.9,8.1L941.5,588.6z"/>
			<path class="st9" d="M946.9,588.7l4.9-8.1l1.1,0l-4.9,8.1L946.9,588.7z"/>
			<path class="st9" d="M952.3,588.9l4.9-8.1l1.1,0l-4.9,8.1L952.3,588.9z"/>
			<path class="st9" d="M957.8,589.1l4.9-8.1l1.1,0l-4.9,8.1L957.8,589.1z"/>
			<path class="st9" d="M963.1,589.3l4.9-8.1l1.1,0l-5,8.1L963.1,589.3z"/>
			<path class="st9" d="M968.6,589.5l4.9-8.1l1.1,0l-5,8.1L968.6,589.5z"/>
			<path class="st9" d="M974,589.6l4.9-8.1l1.1,0l-5,8.1L974,589.6z"/>
			<path class="st9" d="M979.4,589.8l4.9-8.1l1.1,0l-5,8.1L979.4,589.8z"/>
			<path class="st9" d="M984.8,590l4.9-8.1l1.1,0l-5,8.1L984.8,590z"/>
			<path class="st9" d="M990.2,590.2l4.9-8.1l1.1,0l-5,8.1L990.2,590.2z"/>
			<path class="st9" d="M995.6,590.4l5-8.1l1.1,0l-5,8.1L995.6,590.4z"/>
			<path class="st9" d="M1001,590.6l4.9-8.1l1.1,0l-5,8.1L1001,590.6z"/>
			<path class="st9" d="M1006.4,590.8l4.9-8.1l1.1,0l-5,8.1L1006.4,590.8z"/>
			<path class="st9" d="M1011.9,591l5-8.1l1.1,0l-5,8.1L1011.9,591z"/>
			<path class="st9" d="M1017.3,591.2l5-8.1l1.1,0l-5,8.1L1017.3,591.2z"/>
		</g>
		<path class="st10" d="M0,591c0,0,320.2-26.6,1023.3,0.2v72.1H0V591z"/>
		<path class="st11" d="M1021.4,617.5c-11.2,0-16.9,2.7-22.4,5.4c-5.2,2.5-10.1,4.9-20.1,4.9c-10,0-14.9-2.4-20.1-4.9
			c-5.5-2.6-11.1-5.4-22.3-5.4c-11.2,0-16.9,2.7-22.3,5.4c-5.2,2.5-10.1,4.9-20.1,4.9c-10,0-14.9-2.4-20.1-4.9
			c-5.5-2.6-11.1-5.4-22.3-5.4c-11.2,0-16.9,2.7-22.3,5.4c-5.2,2.5-10.1,4.9-20.1,4.9c-10,0-14.9-2.4-20.1-4.9
			c-5.5-2.6-11.1-5.4-22.3-5.4c-0.1,0-0.2,0-0.2,0c-0.1,0-0.2,0-0.2,0c-11.2,0-16.9,2.7-22.4,5.4c-5.2,2.5-10.1,4.9-20.1,4.9
			c-10,0-14.9-2.4-20.1-4.9c-5.5-2.6-11.1-5.4-22.3-5.4c-11.2,0-16.9,2.7-22.3,5.4c-5.2,2.5-10.1,4.9-20.1,4.9
			c-10,0-14.9-2.4-20.1-4.9c-5.5-2.6-11.1-5.4-22.3-5.4c-11.2,0-16.9,2.7-22.3,5.4c-5.2,2.5-10.1,4.9-20.1,4.9
			c-10,0-14.9-2.4-20.1-4.9c-5.5-2.6-11.1-5.4-22.3-5.4c-0.1,0-0.2,0-0.3,0c-0.1,0-0.2,0-0.3,0c-11.2,0-16.9,2.7-22.3,5.4
			c-5.2,2.5-10.1,4.9-20.1,4.9c-10,0-14.9-2.4-20.1-4.9c-5.5-2.6-11.1-5.4-22.3-5.4c-11.2,0-16.9,2.7-22.3,5.4
			c-5.2,2.5-10.1,4.9-20.1,4.9c-10,0-14.9-2.4-20.1-4.9c-5.5-2.6-11.1-5.4-22.3-5.4c-11.2,0-16.9,2.7-22.3,5.4
			c-5.2,2.5-10.1,4.9-20.1,4.9c-10,0-14.9-2.4-20.1-4.9c-5.5-2.6-11.1-5.4-22.3-5.4c-0.1,0-0.2,0-0.2,0c-0.1,0-0.2,0-0.2,0
			c-11.2,0-16.9,2.7-22.4,5.4c-5.2,2.5-10.1,4.9-20.1,4.9s-14.9-2.4-20.1-4.9c-5.5-2.6-11.1-5.4-22.3-5.4c-11.2,0-16.9,2.7-22.3,5.4
			c-5.2,2.5-10.1,4.9-20.1,4.9c-10,0-14.9-2.4-20.1-4.9c-5.5-2.6-11.1-5.4-22.3-5.4c-11.2,0-16.9,2.7-22.3,5.4
			c-5.2,2.5-10.1,4.9-20.1,4.9c-10,0-14.9-2.4-20.1-4.9c-5.5-2.6-11.1-5.4-22.3-5.4l0,0l0,0c-1.1,0-1.9,0.6-1.9,1.3v147.3
			c0,0.7,0.9,1.3,1.9,1.3h1019.5c1.1,0,1.9-0.6,1.9-1.3V618.8C1023.3,618.1,1022.5,617.5,1021.4,617.5z"/>
		<path class="st12" d="M1021.4,713.1c-11.2,0-16.9,3-22.4,6c-5.2,2.8-10.1,5.4-20.1,5.4c-10,0-14.9-2.6-20.1-5.4
			c-5.5-2.9-11.1-6-22.3-6c-11.2,0-16.9,3-22.3,6c-5.2,2.8-10.1,5.4-20.1,5.4c-10,0-14.9-2.6-20.1-5.4c-5.5-2.9-11.1-6-22.3-6
			c-11.2,0-16.9,3-22.3,6c-5.2,2.8-10.1,5.4-20.1,5.4c-10,0-14.9-2.6-20.1-5.4c-5.5-2.9-11.1-6-22.3-6c-0.1,0-0.2,0-0.2,0
			c-0.1,0-0.2,0-0.2,0c-11.2,0-16.9,3-22.4,6c-5.2,2.8-10.1,5.4-20.1,5.4c-10,0-14.9-2.6-20.1-5.4c-5.5-2.9-11.1-6-22.3-6
			c-11.2,0-16.9,3-22.3,6c-5.2,2.8-10.1,5.4-20.1,5.4c-10,0-14.9-2.6-20.1-5.4c-5.5-2.9-11.1-6-22.3-6c-11.2,0-16.9,3-22.3,6
			c-5.2,2.8-10.1,5.4-20.1,5.4c-10,0-14.9-2.6-20.1-5.4c-5.5-2.9-11.1-6-22.3-6c-0.1,0-0.2,0-0.3,0c-0.1,0-0.2,0-0.3,0
			c-11.2,0-16.9,3-22.3,6c-5.2,2.8-10.1,5.4-20.1,5.4c-10,0-14.9-2.6-20.1-5.4c-5.5-2.9-11.1-6-22.3-6c-11.2,0-16.9,3-22.3,6
			c-5.2,2.8-10.1,5.4-20.1,5.4c-10,0-14.9-2.6-20.1-5.4c-5.5-2.9-11.1-6-22.3-6c-11.2,0-16.9,3-22.3,6c-5.2,2.8-10.1,5.4-20.1,5.4
			c-10,0-14.9-2.6-20.1-5.4c-5.5-2.9-11.1-6-22.3-6c-0.1,0-0.2,0-0.2,0c-0.1,0-0.2,0-0.2,0c-11.2,0-16.9,3-22.4,6
			c-5.2,2.8-10.1,5.4-20.1,5.4s-14.9-2.6-20.1-5.4c-5.5-2.9-11.1-6-22.3-6c-11.2,0-16.9,3-22.3,6c-5.2,2.8-10.1,5.4-20.1,5.4
			c-10,0-14.9-2.6-20.1-5.4c-5.5-2.9-11.1-6-22.3-6c-11.2,0-16.9,3-22.3,6c-5.2,2.8-10.1,5.4-20.1,5.4c-10,0-14.9-2.6-20.1-5.4
			c-5.5-2.9-11.1-6-22.3-6l0,0l0,0c-1.1,0-1.9,0.6-1.9,1.4v52.2c0,0.8,0.9,1.4,1.9,1.4h1019.5c1.1,0,1.9-0.6,1.9-1.4v-52.2
			C1023.3,713.7,1022.5,713.1,1021.4,713.1z"/>
		<g>
			<path class="st13" d="M220.3,675.8c-9,0-13.5-2.4-17.9-4.8c-4.1-2.2-8.1-4.3-16-4.3c-7.9,0-11.9,2.1-16,4.3
				c-4.4,2.3-8.9,4.8-17.9,4.8c-9,0-13.5-2.4-17.9-4.8c-4.1-2.2-8.1-4.3-16-4.3c-7.9,0-11.9,2.1-16,4.3c-4.4,2.3-8.9,4.8-17.9,4.8
				c-9,0-13.5-2.4-17.9-4.8c-4.1-2.2-8.1-4.3-16-4.3c-0.9,0-1.6-0.5-1.6-1.2c0-0.6,0.7-1.2,1.6-1.2c9,0,13.5,2.4,17.9,4.8
				c4.1,2.2,8,4.3,16,4.3c7.9,0,11.9-2.1,16-4.3c4.4-2.3,8.9-4.8,17.9-4.8c9,0,13.5,2.4,17.9,4.8c4.1,2.2,8,4.3,16,4.3
				c7.9,0,11.9-2.1,16-4.3c4.4-2.3,8.9-4.8,17.9-4.8c9,0,13.5,2.4,17.9,4.8c4.1,2.2,8.1,4.3,16,4.3c7.9,0,11.9-2.1,16-4.3
				c4.4-2.3,8.9-4.8,17.9-4.8c0.9,0,1.6,0.5,1.6,1.2c0,0.6-0.7,1.2-1.6,1.2c-7.9,0-11.9,2.1-16,4.3
				C233.8,673.4,229.3,675.8,220.3,675.8z"/>
			<path class="st13" d="M940.9,689.5c-9,0-13.5-2.4-17.9-4.8c-4.1-2.2-8.1-4.3-16-4.3c-7.9,0-11.9,2.1-16,4.3
				c-4.4,2.3-8.9,4.8-17.9,4.8c-9,0-13.5-2.4-17.9-4.8c-4.1-2.2-8.1-4.3-16-4.3c-7.9,0-11.9,2.1-16,4.3c-4.4,2.3-8.9,4.8-17.9,4.8
				c-9,0-13.5-2.4-17.9-4.8c-4.1-2.2-8.1-4.3-16-4.3c-0.9,0-1.6-0.5-1.6-1.2c0-0.6,0.7-1.2,1.6-1.2c9,0,13.5,2.4,17.9,4.8
				c4.1,2.2,8,4.3,16,4.3c7.9,0,11.9-2.1,16-4.3c4.4-2.3,8.9-4.8,17.9-4.8c9,0,13.5,2.4,17.9,4.8c4.1,2.2,8,4.3,16,4.3
				c7.9,0,11.9-2.1,16-4.3c4.4-2.3,8.9-4.8,17.9-4.8c9,0,13.5,2.4,17.9,4.8c4.1,2.2,8.1,4.3,16,4.3c7.9,0,11.9-2.1,16-4.3
				c4.4-2.3,8.9-4.8,17.9-4.8c0.9,0,1.6,0.5,1.6,1.2c0,0.6-0.7,1.2-1.6,1.2c-7.9,0-11.9,2.1-16,4.3
				C954.5,687.1,949.9,689.5,940.9,689.5z"/>
			<path class="st13" d="M651.5,650c-9,0-13.5-2.4-17.9-4.8c-4.1-2.2-8.1-4.3-16-4.3c-7.9,0-11.9,2.1-16,4.3
				c-4.4,2.3-8.9,4.8-17.9,4.8c-9,0-13.5-2.4-17.9-4.8c-4.1-2.2-8.1-4.3-16-4.3c-7.9,0-11.9,2.1-16,4.3c-4.4,2.3-8.9,4.8-17.9,4.8
				c-9,0-13.5-2.4-17.9-4.8c-4.1-2.2-8-4.3-16-4.3c-0.9,0-1.6-0.5-1.6-1.2c0-0.6,0.7-1.2,1.6-1.2c9,0,13.5,2.4,17.9,4.8
				c4.1,2.2,8.1,4.3,16,4.3c7.9,0,11.9-2.1,16-4.3c4.4-2.3,8.9-4.8,17.9-4.8c9,0,13.5,2.4,17.9,4.8c4.1,2.2,8.1,4.3,16,4.3
				c7.9,0,11.9-2.1,16-4.3c4.4-2.3,8.9-4.8,17.9-4.8c9,0,13.5,2.4,17.9,4.8c4.1,2.2,8.1,4.3,16,4.3s11.9-2.1,16-4.3
				c4.4-2.3,8.9-4.8,17.9-4.8c0.9,0,1.6,0.5,1.6,1.2c0,0.6-0.7,1.2-1.6,1.2c-7.9,0-11.9,2.1-16,4.3C665.1,647.6,660.5,650,651.5,650
				z"/>
			<path class="st13" d="M500.1,689.6c-9,0-13.5-2.4-17.9-4.8c-4.1-2.2-8.1-4.3-16-4.3c-7.9,0-11.9,2.1-16,4.3
				c-4.4,2.3-8.9,4.8-17.9,4.8c-9,0-13.5-2.4-17.9-4.8c-4.1-2.2-8.1-4.3-16-4.3c-7.9,0-11.9,2.1-16,4.3c-4.4,2.3-8.9,4.8-17.9,4.8
				c-9,0-13.5-2.4-17.9-4.8c-4.1-2.2-8.1-4.3-16-4.3c-0.9,0-1.6-0.5-1.6-1.2c0-0.6,0.7-1.2,1.6-1.2c9,0,13.5,2.4,17.9,4.8
				c4.1,2.2,8,4.3,16,4.3c7.9,0,11.9-2.1,16-4.3c4.4-2.3,8.9-4.8,17.9-4.8c9,0,13.5,2.4,17.9,4.8c4.1,2.2,8.1,4.3,16,4.3
				c7.9,0,11.9-2.1,16-4.3c4.4-2.3,8.9-4.8,17.9-4.8c9,0,13.5,2.4,17.9,4.8c4.1,2.2,8.1,4.3,16,4.3c7.9,0,11.9-2.1,16-4.3
				c4.4-2.3,8.9-4.8,17.9-4.8c0.9,0,1.6,0.5,1.6,1.2c0,0.6-0.7,1.2-1.6,1.2c-7.9,0-11.9,2.1-16,4.3
				C513.7,687.1,509.1,689.6,500.1,689.6z"/>
		</g>
		<g>
			<g>
				<ellipse class="st14" cx="215.2" cy="593.8" rx="5.8" ry="2.8"/>
				<ellipse class="st14" cx="228.8" cy="591.2" rx="3.2" ry="1.6"/>
				<ellipse class="st14" cx="201.3" cy="594.7" rx="2.8" ry="1.4"/>
			</g>
			<g>
				<ellipse class="st14" cx="467.8" cy="596.4" rx="5.1" ry="2.5"/>
				<ellipse class="st14" cx="456.7" cy="592.1" rx="3.2" ry="1.6"/>
				<ellipse class="st14" cx="478.9" cy="591.6" rx="2.8" ry="1.4"/>
			</g>
			<g>
				<ellipse class="st14" cx="809.4" cy="594.3" rx="3.4" ry="1.6"/>
				<ellipse class="st14" cx="799.1" cy="596.6" rx="2.4" ry="1.2"/>
				<ellipse class="st14" cx="809.4" cy="599.4" rx="1.7" ry="0.8"/>
				<ellipse class="st14" cx="822.4" cy="595" rx="2.8" ry="1.4"/>
			</g>
		</g>
	</g>
	<g>
		<path class="st3" d="M220.9,565.9c1.6-0.1,2.1-1.2,1.3-2.5l-3.3-5c-0.9-1.3-2.3-3.4-3.1-4.7l-3.3-5c-0.9-1.3-2.1-1.2-2.8,0.2
			l-1.3,2.6c-0.7,1.4-1.7,1.8-2.3,1c-0.6-0.9-1.7-2.6-2.6-3.9l-7.1-10.8c-0.9-1.3-2.1-1.2-2.8,0.2l-5.8,11.5
			c-0.7,1.4-1.8,3.7-2.5,5.1l-5.8,11.5c-0.7,1.4,0,2.5,1.6,2.4l12.9-0.7c1.6-0.1,4.1-0.2,5.7-0.3l12.9-0.7c1.6-0.1,2.8-0.2,2.8-0.2
			c0,0,1.3-0.1,2.8-0.2L220.9,565.9z"/>
	</g>
	<g>
		<path class="st3" d="M429,535.4c0.8-1.4,2.1-1.4,2.8,0l5.4,9.4c0.8,1.4,2.1,3.6,2.8,4.9l5.4,9.4c0.8,1.4,0.1,2.5-1.4,2.5h-10.8
			c-1.6,0-4.1,0-5.7,0h-10.8c-1.6,0-2.2-1.1-1.4-2.5l5.4-9.4c0.8-1.4,2.1-3.6,2.8-4.9L429,535.4z"/>
	</g>
	<g>
		<path class="st3" d="M479.9,376.2c2.1-5.1,5.8-5.2,8.2-0.2l86.3,177.2c2.4,4.9-0.1,9.1-5.6,9.3l-69.3,2c-5.5,0.2-14.5,0.4-20,0.6
			l-69.3,2c-5.5,0.2-8.3-3.9-6.1-8.9L479.9,376.2z"/>
	</g>
	<g>
		<g>
			<path class="st4" d="M480,375.1c2-5.1,5.7-5.3,8.2-0.3l26.9,54.1c2.4,4.9,1.7,5.4-1.8,1.1l-16.8-21.1c-3.4-4.3-6.9-3.4-7.9,2
				l-2.1,12.7c-0.9,5.4-3.5,5.8-5.9,0.8l-1-2.1c-2.3-5-7-5.6-10.5-1.3l-8.8,11c-3.4,4.3-4.6,3.6-2.5-1.5L480,375.1z"/>
		</g>
		<path class="st4" d="M456.7,435.3l0,0.4L456.7,435.3L456.7,435.3z"/>
	</g>
</g>
</svg>
